<?xml version="1.0" encoding="UTF-8" standalone="no"?>
<svg
   xmlns:dc="http://purl.org/dc/elements/1.1/"
   xmlns:cc="http://creativecommons.org/ns#"
   xmlns:rdf="http://www.w3.org/1999/02/22-rdf-syntax-ns#"
   xmlns:svg="http://www.w3.org/2000/svg"
   xmlns="http://www.w3.org/2000/svg"
   xmlns:sodipodi="http://sodipodi.sourceforge.net/DTD/sodipodi-0.dtd"
   xmlns:inkscape="http://www.inkscape.org/namespaces/inkscape"
   width="108mm"
   height="108mm"
   viewBox="0 0 108 108"
   version="1.1"
   id="svg8"
   sodipodi:docname="dstream.svg"
   inkscape:version="1.0rc1 (9a3bfd3, 2020-04-25)">
  <defs
     id="defs2">
    <inkscape:path-effect
       effect="spiro"
       id="path-effect1518"
       is_visible="true"
       lpeversion="1" />
    <inkscape:path-effect
       effect="spiro"
       id="path-effect1514"
       is_visible="true"
       lpeversion="1" />
    <inkscape:path-effect
       effect="spiro"
       id="path-effect1510"
       is_visible="true"
       lpeversion="1" />
  </defs>
  <sodipodi:namedview
     id="base"
     pagecolor="#ffffff"
     bordercolor="#666666"
     borderopacity="1.0"
     inkscape:pageopacity="0.0"
     inkscape:pageshadow="2"
     inkscape:zoom="2.8"
     inkscape:cx="157.64768"
     inkscape:cy="209.36826"
     inkscape:document-units="mm"
     inkscape:current-layer="layer1"
     inkscape:document-rotation="0"
     showgrid="false"
     inkscape:window-width="1920"
     inkscape:window-height="1051"
     inkscape:window-x="0"
     inkscape:window-y="0"
     inkscape:window-maximized="1"
     inkscape:snap-object-midpoints="true"
     inkscape:snap-center="true"
     inkscape:snap-text-baseline="true"
     inkscape:snap-page="true"
     inkscape:snap-intersection-paths="true"
     inkscape:object-paths="true"
     inkscape:snap-bbox="false"
     inkscape:snap-smooth-nodes="true"
     inkscape:snap-midpoints="true" />
  <metadata
     id="metadata5">
    <rdf:RDF>
      <cc:Work
         rdf:about="">
        <dc:format>image/svg+xml</dc:format>
        <dc:type
           rdf:resource="http://purl.org/dc/dcmitype/StillImage" />
        <dc:title />
      </cc:Work>
    </rdf:RDF>
  </metadata>
  <g
     inkscape:label="Layer 1"
     inkscape:groupmode="layer"
     id="layer1">
    <path
       style="fill:none;stroke:#000000;stroke-width:1.8;stroke-linecap:butt;stroke-linejoin:miter;stroke-miterlimit:4;stroke-dasharray:none;stroke-opacity:1"
       d="m 38.198009,46.256402 c 0.41845,-0.217142 0.915841,-0.277819 1.374221,-0.167641 0.45838,0.110178 0.873862,0.390276 1.147916,0.773871 0.274055,0.383596 0.404359,0.867435 0.360011,1.33678 -0.04435,0.469345 -0.26297,0.920215 -0.604023,1.24569 -0.252911,0.241359 -0.569713,0.413445 -0.907507,0.503518 -0.337794,0.09007 -0.695889,0.09885 -1.039587,0.0349 -0.687396,-0.127898 -1.30332,-0.545623 -1.736641,-1.094352 -0.433322,-0.548729 -0.692682,-1.221183 -0.816183,-1.909383 -0.123502,-0.6882 -0.116193,-1.394067 -0.05633,-2.090693 0.36321,-4.226857 2.727842,-8.200634 6.160136,-10.694144 3.432295,-2.493511 7.857076,-3.515682 12.064864,-2.974606 5.156418,0.663059 9.907167,3.622345 13.073855,7.745496 3.166689,4.123152 4.788589,9.335708 4.89775,14.533436 0.112783,5.37016 -1.391172,10.823833 -4.569085,15.154214 -3.177914,4.330382 -8.073909,7.45316 -13.40252,8.129354 -4.207547,0.533932 -8.629463,-0.488563 -12.061592,-2.980356 -3.432129,-2.491792 -5.799093,-6.46278 -6.163408,-10.688394 -0.06007,-0.696679 -0.0675,-1.402623 0.05595,-2.090904 0.123443,-0.688281 0.38281,-1.360819 0.816173,-1.909605 0.433363,-0.548785 1.04936,-0.966537 1.736826,-1.094438 0.343734,-0.06395 0.701864,-0.05517 1.039692,0.03491 0.337828,0.09008 0.654665,0.262176 0.907613,0.503546 0.341117,0.325504 0.559801,0.776418 0.604197,1.245825 0.0444,0.469407 -0.08587,0.953325 -0.359912,1.337011 -0.274042,0.383685 -0.689535,0.663885 -1.14796,0.774159 -0.458425,0.110274 -0.955894,0.04969 -1.37445,-0.167395"
       id="path1516"
       inkscape:path-effect="#path-effect1518"
       inkscape:original-d="m 38.198009,46.256402 c -0.683778,1.031215 2.959227,2.164974 2.278125,3.1887 -0.681107,1.023731 -4.174492,-3.164542 -4.55625,-4.556009 -0.381767,-1.391471 18.469754,-7.918767 18.225,-13.66875 -0.348279,-8.181827 11.762303,15.481052 17.971605,22.278932 6.209306,6.797884 -11.059684,18.510193 -17.971605,23.283568 -6.911916,4.773378 -12.814972,-11.703932 -18.225,-13.66875 -5.41003,-1.964825 3.770996,-3.296953 4.55625,-4.556491 0.785259,-1.259549 -2.353029,2.247047 -2.278125,3.1896"
       sodipodi:nodetypes="csssssssc" />
    <path
       sodipodi:nodetypes="cccc"
       id="path1452"
       d="m 49.858384,47.167 v 13.669 l 8.283231,-6.8345 z"
       style="fill:#000000;fill-opacity:1;stroke:#000000;stroke-width:0;stroke-linecap:butt;stroke-linejoin:miter;stroke-miterlimit:4;stroke-dasharray:none;stroke-opacity:1" />
  </g>
</svg>
